<svg version="1.2" xmlns="http://www.w3.org/2000/svg" viewBox="0 0 513 187" width="513" height="187">
	<style>
		tspan { white-space:pre } 
		.s0 { fill: none } 
		.s1 { fill: #cfebff } 
		.s2 { fill: none;stroke: #f1d835;stroke-linecap: round;stroke-width: 2 } 
		.s3 { fill: #f1d835 } 
	</style>
	<g id="shape-55ff07d5-c417-80d5-8006-b8aa18c8e6d6">
		<g>
			<g>
				<g>
					<g>
						<g id="fills-55ff07d5-c417-80d5-8006-b8aa18c8e6d6">
							<path fill-rule="evenodd" class="s0" d="m5 25h502v137h-502z"/>
						</g>
						<g>
							<g id="shape-55ff07d5-c417-80d5-8006-b8aa18c8e6dc">
								<g id="shape-686ac4eb-0565-80d4-8006-b8b00d3085a7">
									<g id="fills-686ac4eb-0565-80d4-8006-b8b00d3085a7">
										<path class="s1" d="m103.4 101.4q0-6.4 2.25-12.65 2.25-6.25 6.55-11.4 4.3-5.15 10.55-8.25 6.25-3.1 14.25-3.1 9.5 0 16.2 4.35 6.7 4.35 10 11.15l-4.2 2.4q-2.5-4.9-6.15-7.8-3.65-2.9-7.85-4.15-4.2-1.25-8.4-1.25-6.7 0-11.95 2.7-5.25 2.7-8.85 7.2-3.6 4.5-5.45 10-1.85 5.5-1.85 11.1 0 6.3 2.2 11.95 2.2 5.65 6.05 10.05 3.85 4.4 9 7 5.15 2.6 11.15 2.6 4.3 0 8.75-1.45 4.45-1.45 8.35-4.5 3.9-3.05 6.3-7.95l4.4 2.1q-2.3 5.3-6.9 9-4.6 3.7-10.2 5.6-5.6 1.9-11.1 1.9-7.2 0-13.3-3.15-6.1-3.15-10.55-8.4-4.45-5.25-6.85-11.8-2.4-6.55-2.4-13.25zm84 36h-5.1v-71h5.1zm28.7 0h-5.1v-71h29.2q4.5 0 8.25 1.9 3.75 1.9 6.55 5.05 2.8 3.15 4.35 7.05 1.55 3.9 1.55 8 0 5.7-2.55 10.75-2.55 5.05-7 8.25-4.45 3.2-10.55 3.2h-24.7zm0-66.4v34.9h24.5q4.7 0 8.1-2.5 3.4-2.5 5.2-6.5 1.8-4 1.8-8.5 0-4.7-2.15-8.65-2.15-3.95-5.7-6.35-3.55-2.4-7.85-2.4zm111.9-4.6h5.1v71h-5.1v-34h-44.8v34h-5.1v-71h5.1v32.4h44.8zm33.7 66.4h42.2v4.6h-47.3v-71h46.4v4.6h-41.3v27.9h36.1v4.4h-36.1zm66.2 4.6h-5.1v-71h29.5q4.6 0 8.35 1.9 3.75 1.9 6.5 5.05 2.75 3.15 4.3 7.05 1.55 3.9 1.55 8 0 5.3-2.1 9.9-2.1 4.6-5.85 7.7-3.75 3.1-8.75 3.8l17.7 27.6h-5.9l-17.2-26.8h-23zm0-66.4v34.9h24.9q4.6 0 8-2.5 3.4-2.5 5.25-6.5 1.85-4 1.85-8.5 0-4.6-2.15-8.55-2.15-3.95-5.7-6.4-3.55-2.45-7.95-2.45z"/>
									</g>
								</g>
								<g id="shape-55ff07d5-c417-80d5-8006-b8aa18c8e6de">
									<g id="shape-55ff07d5-c417-80d5-8006-b8aa18c8e6e5">
										<g id="fills-55ff07d5-c417-80d5-8006-b8aa18c8e6e5">
											<path class="s0" d="m13 123.07c-3.8-6.12-6-13.34-6-21.07 0-5.4 1.07-10.55 3.01-15.25h14.62 19.37v11.63 11.62h-7.75-7.75v3.88 3.87h11.63 11.62v-9.76l7.75 7.83v13.56 10.62q-3.73 1.24-7.75 1.72v-16.22h-15.5-15.5v-11.62-11.63h7.75 7.75v-3.87-3.88h-11.63-11.62v23.25zm54.25 0.58l7.28 7.36c-2.2 2.09-4.64 3.93-7.28 5.49zm-23.25 18.23c-8.27-0.61-15.85-3.75-21.96-8.63h10.34 11.62zm-29.72-62.89c3.67-5.21 8.54-9.5 14.22-12.47v0.84 11.63zm37.47 17.37v-17.37h-7.75-7.75v-15.54q3.75-1.05 7.75-1.35v9.14h7.75 7.75v17.29zm0-34.09q3.15 0.37 6.13 1.22h-2.25-3.88zm15.5 5.22c2.71 1.6 5.22 3.5 7.47 5.67l-7.47 7.55z"/>
										</g>
										<g id="strokes-2841c56d-774b-806f-8007-74b219e1f7cc-55ff07d5-c417-80d5-8006-b8aa18c8e6e5">
											<g>
												<path class="s2" d="m13 123.07c-3.8-6.12-6-13.34-6-21.07 0-5.4 1.07-10.55 3.01-15.25h14.62 19.37v11.63 11.62h-7.75-7.75v3.88 3.87h11.63 11.62v-9.76l7.75 7.83v13.56 10.62q-3.73 1.24-7.75 1.72v-16.22h-15.5-15.5v-11.62-11.63h7.75 7.75v-3.87-3.88h-11.63-11.62v23.25zm54.25 0.58l7.28 7.36c-2.2 2.09-4.64 3.93-7.28 5.49zm-23.25 18.23c-8.27-0.61-15.85-3.75-21.96-8.63h10.34 11.62zm-29.72-62.89c3.67-5.21 8.54-9.5 14.22-12.47v0.84 11.63zm37.47 17.37v-17.37h-7.75-7.75v-15.54q3.75-1.05 7.75-1.35v9.14h7.75 7.75v17.29zm0-34.09q3.15 0.37 6.13 1.22h-2.25-3.88zm15.5 5.22c2.71 1.6 5.22 3.5 7.47 5.67l-7.47 7.55z"/>
											</g>
										</g>
									</g>
								</g>
								<g id="shape-55ff07d5-c417-80d5-8006-b8aa18c8e6e1">
									<g id="fills-55ff07d5-c417-80d5-8006-b8aa18c8e6e1">
										<path fill-rule="evenodd" class="s3" d="m77 110c-4.42 0-8-3.58-8-8 0-4.42 3.58-8 8-8 4.42 0 8 3.58 8 8 0 4.42-3.58 8-8 8z"/>
									</g>
								</g>
								<g id="shape-55ff07d5-c417-80d5-8006-b8aa18c8e6e2">
									<g id="fills-55ff07d5-c417-80d5-8006-b8aa18c8e6e2">
										<path fill-rule="evenodd" class="s3" d="m499 110c-4.42 0-8-3.58-8-8 0-4.42 3.58-8 8-8 4.42 0 8 3.58 8 8 0 4.42-3.58 8-8 8z"/>
									</g>
								</g>
								<g id="shape-55ff07d5-c417-80d5-8006-b8aa18c8e6e3">
									<g id="shape-55ff07d5-c417-80d5-8006-b8aa18c8e6fd">
										<g id="fills-55ff07d5-c417-80d5-8006-b8aa18c8e6fd">
											<path fill-rule="evenodd" class="s3" d="m193.62 44.83c-1.67-0.7-3.18-1.72-4.45-3-1.78-1.78-3.05-4.01-3.68-6.45-0.06-0.22-0.26-0.38-0.49-0.38-0.23 0-0.43 0.16-0.49 0.38-0.63 2.44-1.9 4.67-3.68 6.45-1.27 1.28-2.78 2.3-4.45 3q-0.97 0.42-2 0.68c-0.22 0.06-0.38 0.26-0.38 0.49 0 0.23 0.16 0.43 0.38 0.49q1.03 0.26 2 0.68c1.67 0.7 3.18 1.72 4.45 3 1.78 1.78 3.06 4.01 3.68 6.45 0.06 0.22 0.26 0.38 0.49 0.38 0.23 0 0.43-0.16 0.49-0.38q0.26-1.03 0.68-2c0.7-1.67 1.72-3.18 3-4.45 1.78-1.78 4.01-3.05 6.45-3.68 0.22-0.06 0.38-0.26 0.38-0.49 0-0.23-0.16-0.43-0.38-0.49q-1.03-0.26-2-0.68z"/>
										</g>
									</g>
								</g>
								<g id="shape-55ff07d5-c417-80d5-8006-b8aa18c8e6e4">
									<g id="shape-55ff07d5-c417-80d5-8006-b8aa18c8e6ff">
										<g id="fills-55ff07d5-c417-80d5-8006-b8aa18c8e6ff">
											<path fill-rule="evenodd" class="s3" d="m201.31 57.42q-1.26-0.54-2.23-1.5c-0.89-0.89-1.52-2.01-1.84-3.23-0.02-0.11-0.12-0.19-0.24-0.19-0.11 0-0.22 0.08-0.24 0.19-0.32 1.22-0.95 2.33-1.84 3.23q-0.97 0.96-2.23 1.5-0.49 0.21-1 0.34c-0.11 0.02-0.19 0.12-0.19 0.24 0 0.12 0.08 0.22 0.19 0.24q0.51 0.13 1 0.34 1.26 0.54 2.23 1.5c0.89 0.9 1.52 2.01 1.84 3.23 0.02 0.11 0.12 0.19 0.24 0.19 0.12 0 0.22-0.08 0.24-0.19q0.13-0.51 0.34-1 0.54-1.26 1.5-2.23c0.89-0.89 2.01-1.52 3.23-1.84 0.11-0.02 0.19-0.12 0.19-0.24 0-0.11-0.08-0.22-0.19-0.24q-0.51-0.13-1-0.34z"/>
										</g>
									</g>
								</g>
							</g>
						</g>
					</g>
				</g>
			</g>
		</g>
	</g>
</svg>