<svg width="680" xmlns="http://www.w3.org/2000/svg" height="248" id="screenshot-55ff07d5-c417-80d5-8006-b8aa18c8e6d6" viewBox="-178 -39 680 248" xmlns:xlink="http://www.w3.org/1999/xlink" fill="none" version="1.1"><style>/* cyrillic-ext */
@font-face {
  font-family: 'Raleway';
  font-style: normal;
  font-weight: 300;
  font-display: block;
  src: url(http://localhost:6080/internal/gfonts/font/raleway/v37/1Ptxg8zYS_SKggPN4iEgvnHyvveLxVuEorCFPrEHJA.woff2) format('woff2');
  unicode-range: U+0460-052F, U+1C80-1C8A, U+20B4, U+2DE0-2DFF, U+A640-A69F, U+FE2E-FE2F;
}
/* cyrillic */
@font-face {
  font-family: 'Raleway';
  font-style: normal;
  font-weight: 300;
  font-display: block;
  src: url(http://localhost:6080/internal/gfonts/font/raleway/v37/1Ptxg8zYS_SKggPN4iEgvnHyvveLxVuEorCMPrEHJA.woff2) format('woff2');
  unicode-range: U+0301, U+0400-045F, U+0490-0491, U+04B0-04B1, U+2116;
}
/* vietnamese */
@font-face {
  font-family: 'Raleway';
  font-style: normal;
  font-weight: 300;
  font-display: block;
  src: url(http://localhost:6080/internal/gfonts/font/raleway/v37/1Ptxg8zYS_SKggPN4iEgvnHyvveLxVuEorCHPrEHJA.woff2) format('woff2');
  unicode-range: U+0102-0103, U+0110-0111, U+0128-0129, U+0168-0169, U+01A0-01A1, U+01AF-01B0, U+0300-0301, U+0303-0304, U+0308-0309, U+0323, U+0329, U+1EA0-1EF9, U+20AB;
}
/* latin-ext */
@font-face {
  font-family: 'Raleway';
  font-style: normal;
  font-weight: 300;
  font-display: block;
  src: url(http://localhost:6080/internal/gfonts/font/raleway/v37/1Ptxg8zYS_SKggPN4iEgvnHyvveLxVuEorCGPrEHJA.woff2) format('woff2');
  unicode-range: U+0100-02BA, U+02BD-02C5, U+02C7-02CC, U+02CE-02D7, U+02DD-02FF, U+0304, U+0308, U+0329, U+1D00-1DBF, U+1E00-1E9F, U+1EF2-1EFF, U+2020, U+20A0-20AB, U+20AD-20C0, U+2113, U+2C60-2C7F, U+A720-A7FF;
}
/* latin */
@font-face {
  font-family: 'Raleway';
  font-style: normal;
  font-weight: 300;
  font-display: block;
  src: url(http://localhost:6080/internal/gfonts/font/raleway/v37/1Ptxg8zYS_SKggPN4iEgvnHyvveLxVuEorCIPrE.woff2) format('woff2');
  unicode-range: U+0000-00FF, U+0131, U+0152-0153, U+02BB-02BC, U+02C6, U+02DA, U+02DC, U+0304, U+0308, U+0329, U+2000-206F, U+20AC, U+2122, U+2191, U+2193, U+2212, U+2215, U+FEFF, U+FFFD;
}
</style><g id="shape-55ff07d5-c417-80d5-8006-b8aa18c8e6d6"><g class="frame-container-wrapper"><g class="frame-container-blur"><g class="frame-container-shadows"><g fill="none"><g class="fills" id="fills-55ff07d5-c417-80d5-8006-b8aa18c8e6d6"><rect rx="0" ry="0" x="0" y="0" width="502" height="137" transform="matrix(1.000000, 0.000000, 0.000000, 1.000000, 0.000000, 0.000000)" class="frame-background"/></g><g class="frame-children"><g id="shape-55ff07d5-c417-80d5-8006-b8aa18c8e6dc" rx="0" ry="0"><g id="shape-55ff07d5-c417-80d5-8006-b8abc9caaecf" style="display: none;"><g transform="matrix(1.000000, 0.000000, 0.000000, 1.000000, 0.000000, 0.000000)" class="text-container" x="94" y="17" width="385" height="120" rx="0" ry="0"><defs><pattern patternUnits="objectBoundingBox" width="384.34375" height="117.5" id="fill-0-render-3-0"><g><rect width="384.34375" height="117.5" style="fill: rgb(207, 235, 255); fill-opacity: 1;"/></g></pattern></defs><g class="fills" id="fills-55ff07d5-c417-80d5-8006-b8abc9caaecf"><text x="94" y="135.5" dominant-baseline="ideographic" textLength="384.34375" lengthAdjust="spacingAndGlyphs" style="text-transform: none; font-family: Raleway; letter-spacing: 5px; font-style: normal; font-weight: 300; white-space: pre; font-size: 100px; text-decoration: rgb(207, 235, 255); direction: ltr; fill: rgb(207, 235, 255); fill-opacity: 1;">CIPHER</text></g></g></g><g id="shape-686ac4eb-0565-80d4-8006-b8b00d3085a7"><g class="fills" id="fills-686ac4eb-0565-80d4-8006-b8b00d3085a7"><path d="M98.39999389648438,76.40005493164062L98.39999389648438,76.40005493164062C98.39999389648438,72.13333129882812,99.14999389648438,67.91665649414062,100.64999389648438,63.750030517578125C102.14999389648438,59.583282470703125,104.33331298828125,55.783355712890625,107.20001220703125,52.350006103515625C110.066650390625,48.916656494140625,113.58331298828125,46.166656494140625,117.75,44.100006103515625C121.91668701171875,42.033355712890625,126.66668701171875,41.000030517578125,132,41.000030517578125L132,41.000030517578125C138.33331298828125,41.000030517578125,143.73333740234375,42.449981689453125,148.20001220703125,45.350006103515625C152.66668701171875,48.250030517578125,156,51.966705322265625,158.20001220703125,56.500030517578125L158.20001220703125,56.500030517578125L154,58.900054931640625C152.33331298828125,55.633331298828125,150.2833251953125,53.033355712890625,147.85000610351562,51.100006103515625C145.41668701171875,49.166656494140625,142.79998779296875,47.783355712890625,140,46.949981689453125C137.20001220703125,46.116607666015625,134.39999389648438,45.699981689453125,131.60000610351562,45.699981689453125L131.60000610351562,45.699981689453125C127.13333129882812,45.699981689453125,123.14999389648438,46.600006103515625,119.64999389648438,48.400054931640625C116.14999389648438,50.199981689453125,113.20001220703125,52.600006103515625,110.79998779296875,55.600006103515625C108.39999389648438,58.600006103515625,106.58331298828125,61.933380126953125,105.35000610351562,65.60000610351562C104.11666870117188,69.26663208007812,103.5,72.96670532226562,103.5,76.69998168945312L103.5,76.69998168945312C103.5,80.90005493164062,104.23333740234375,84.88333129882812,105.70001220703125,88.65005493164062C107.16668701171875,92.41665649414062,109.183349609375,95.76663208007812,111.75,98.69998168945312C114.316650390625,101.63333129882812,117.316650390625,103.96670532226562,120.75,105.69998168945312C124.183349609375,107.43338012695312,127.89999389648438,108.29995727539062,131.89999389648438,108.29995727539062L131.89999389648438,108.29995727539062C134.76666259765625,108.29995727539062,137.683349609375,107.81668090820312,140.64999389648438,106.85000610351562C143.61666870117188,105.88333129882812,146.39999389648438,104.38333129882812,149,102.35000610351562C151.60000610351562,100.31668090820312,153.70001220703125,97.66665649414062,155.29998779296875,94.40005493164062L155.29998779296875,94.40005493164062L159.70001220703125,96.50003051757812C158.16665649414062,100.03335571289062,155.86666870117188,103.03335571289062,152.79998779296875,105.50003051757812C149.73333740234375,107.96670532226562,146.33331298828125,109.83328247070312,142.60000610351562,111.10000610351562C138.86666870117188,112.36660766601562,135.16668701171875,113.00003051757812,131.5,113.00003051757812L131.5,113.00003051757812C126.70001220703125,113.00003051757812,122.26666259765625,111.94998168945312,118.20001220703125,109.85000610351562C114.13333129882812,107.75003051757812,110.61666870117188,104.94998168945312,107.64999389648438,101.44998168945312C104.683349609375,97.94998168945312,102.39999389648438,94.01663208007812,100.79998779296875,89.65005493164062C99.20001220703125,85.28335571289062,98.39999389648438,80.86660766601562,98.39999389648438,76.40005493164062ZM182.39999389648438,112.40005493164062L177.29998779296875,112.40005493164062L177.29998779296875,41.400054931640625L182.39999389648438,41.400054931640625L182.39999389648438,112.40005493164062ZM211.10000610351562,112.40005493164062L206,112.40005493164062L206,41.400054931640625L235.20001220703125,41.400054931640625C238.20001220703125,41.400054931640625,240.95001220703125,42.033355712890625,243.45001220703125,43.299957275390625C245.95001220703125,44.566680908203125,248.13330078125,46.250030517578125,250,48.350006103515625C251.86669921875,50.449981689453125,253.316650390625,52.799957275390625,254.3499755859375,55.400054931640625C255.38330078125,58.000030517578125,255.9000244140625,60.666656494140625,255.9000244140625,63.400054931640625L255.9000244140625,63.400054931640625C255.9000244140625,67.19998168945312,255.04998779296875,70.78335571289062,253.3499755859375,74.15005493164062C251.6500244140625,77.51663208007812,249.316650390625,80.26663208007812,246.3499755859375,82.40005493164062C243.38330078125,84.53335571289062,239.86669921875,85.60000610351562,235.79998779296875,85.60000610351562L235.79998779296875,85.60000610351562L211.10000610351562,85.60000610351562L211.10000610351562,112.40005493164062ZM211.10000610351562,46.000030517578125L211.10000610351562,80.90005493164062L235.5999755859375,80.90005493164062C238.73333740234375,80.90005493164062,241.433349609375,80.06668090820312,243.70001220703125,78.40005493164062C245.9666748046875,76.73330688476562,247.70001220703125,74.56668090820312,248.9000244140625,71.90005493164062C250.0999755859375,69.23330688476562,250.70001220703125,66.40005493164062,250.70001220703125,63.400054931640625L250.70001220703125,63.400054931640625C250.70001220703125,60.266632080078125,249.98333740234375,57.383331298828125,248.54998779296875,54.750030517578125C247.11669921875,52.116607666015625,245.2166748046875,50.000030517578125,242.8499755859375,48.400054931640625C240.48333740234375,46.799957275390625,237.86669921875,46.000030517578125,235,46.000030517578125L235,46.000030517578125L211.10000610351562,46.000030517578125ZM323,41.400054931640625L328.0999755859375,41.400054931640625L328.0999755859375,112.40005493164062L323,112.40005493164062L323,78.40005493164062L278.20001220703125,78.40005493164062L278.20001220703125,112.40005493164062L273.0999755859375,112.40005493164062L273.0999755859375,41.400054931640625L278.20001220703125,41.400054931640625L278.20001220703125,73.79995727539062L323,73.79995727539062L323,41.400054931640625ZM356.70001220703125,107.79995727539062L398.9000244140625,107.79995727539062L398.9000244140625,112.40005493164062L351.5999755859375,112.40005493164062L351.5999755859375,41.400054931640625L398,41.400054931640625L398,46.000030517578125L356.70001220703125,46.000030517578125L356.70001220703125,73.90005493164062L392.79998779296875,73.90005493164062L392.79998779296875,78.29995727539062L356.70001220703125,78.29995727539062L356.70001220703125,107.79995727539062ZM422.9000244140625,112.40005493164062L417.79998779296875,112.40005493164062L417.79998779296875,41.400054931640625L447.29998779296875,41.400054931640625C450.36669921875,41.400054931640625,453.1500244140625,42.033355712890625,455.6500244140625,43.299957275390625C458.1500244140625,44.566680908203125,460.316650390625,46.250030517578125,462.1500244140625,48.350006103515625C463.98333740234375,50.449981689453125,465.4166259765625,52.799957275390625,466.45001220703125,55.400054931640625C467.48333740234375,58.000030517578125,468,60.666656494140625,468,63.400054931640625L468,63.400054931640625C468,66.93338012695312,467.29998779296875,70.23330688476562,465.9000244140625,73.29995727539062C464.5,76.36660766601562,462.54998779296875,78.93338012695312,460.04998779296875,81.00003051757812C457.54998779296875,83.06668090820312,454.63330078125,84.33328247070312,451.29998779296875,84.79995727539062L451.29998779296875,84.79995727539062L469,112.40005493164062L463.0999755859375,112.40005493164062L445.9000244140625,85.60000610351562L422.9000244140625,85.60000610351562L422.9000244140625,112.40005493164062ZM422.9000244140625,46.000030517578125L422.9000244140625,80.90005493164062L447.79998779296875,80.90005493164062C450.86669921875,80.90005493164062,453.5333251953125,80.06668090820312,455.79998779296875,78.40005493164062C458.066650390625,76.73330688476562,459.816650390625,74.56668090820312,461.04998779296875,71.90005493164062C462.2833251953125,69.23330688476562,462.9000244140625,66.40005493164062,462.9000244140625,63.400054931640625L462.9000244140625,63.400054931640625C462.9000244140625,60.333282470703125,462.183349609375,57.483306884765625,460.75,54.850006103515625C459.316650390625,52.216705322265625,457.4166259765625,50.083282470703125,455.04998779296875,48.449981689453125C452.683349609375,46.816680908203125,450.0333251953125,46.000030517578125,447.0999755859375,46.000030517578125L447.0999755859375,46.000030517578125L422.9000244140625,46.000030517578125Z" width="370.6" height="120" style="fill: rgb(207, 235, 255); fill-opacity: 1;"/></g></g><g id="shape-55ff07d5-c417-80d5-8006-b8aa18c8e6de" rx="0" ry="0"><g id="shape-55ff07d5-c417-80d5-8006-b8aa18c8e6e5"><g class="fills" id="fills-55ff07d5-c417-80d5-8006-b8aa18c8e6e5"><path d="M8,98.06948852539062C4.196990966796875,91.94937133789062,2,84.72927856445312,2,77.00003051757812C2,71.60122680664062,3.0718994140625,66.45071411132812,5.014312744140625,61.750030517578125L19.625,61.750030517578125L39,61.750030517578125L39,73.37503051757812L39,85.00003051757812L31.25,85.00003051757812L23.5,85.00003051757812L23.5,88.87503051757812L23.5,92.75003051757812L35.125,92.75003051757812L46.75,92.75003051757812L46.75,82.99356079101562L54.5,90.82241821289062L54.5,104.37503051757812L54.5,115.00491333007812C52.014984130859375,115.82278442382812,49.422698974609375,116.40359497070312,46.75,116.72036743164062L46.75,100.50003051757812L31.25,100.50003051757812L15.75,100.50003051757812L15.75,88.87503051757812L15.75,77.25003051757812L23.5,77.25003051757812L31.25,77.25003051757812L31.25,73.37503051757812L31.25,69.50003051757812L19.625,69.50003051757812L8,69.50003051757812L8,92.75003051757812L8,98.06948852539062M62.25,98.65127563476562L69.531494140625,106.00686645507812C67.32730102539062,108.09976196289062,64.8851318359375,109.94436645507812,62.25,111.49575805664062L62.25,98.65127563476562M39,116.88894653320312C30.727874755859375,116.27444458007812,23.15277099609375,113.13943481445312,17.040924072265625,108.25003051757812L27.375,108.25003051757812L39,108.25003051757812L39,116.88894653320312M9.278350830078125,54.000030517578125C12.9456787109375,48.794586181640625,17.82305908203125,44.501861572265625,23.5,41.532257080078125L23.5,42.375030517578125L23.5,54.000030517578125L9.278350830078125,54.000030517578125M46.75,71.37661743164062L46.75,54.000030517578125L39,54.000030517578125L31.25,54.000030517578125L31.25,38.463531494140625C33.74395751953125,37.768341064453125,36.335845947265625,37.308990478515625,39,37.111114501953125L39,46.250030517578125L46.75,46.250030517578125L54.5,46.250030517578125L54.5,63.547760009765625L46.75,71.37661743164062M46.75,37.279693603515625C48.847137451171875,37.528228759765625,50.894775390625,37.939361572265625,52.87994384765625,38.500030517578125L50.625,38.500030517578125L46.75,38.500030517578125L46.75,37.279693603515625M62.25,42.504302978515625C64.96041870117188,44.099884033203125,67.46670532226562,46.005889892578125,69.7198486328125,48.173126220703125L62.25,55.718902587890625L62.25,42.504302978515625"/></g><g id="strokes-2841c56d-774b-806f-8007-74b219e1f7cc-55ff07d5-c417-80d5-8006-b8aa18c8e6e5" class="strokes"><g class="stroke-shape"><path d="M8,98.06948852539062C4.196990966796875,91.94937133789062,2,84.72927856445312,2,77.00003051757812C2,71.60122680664062,3.0718994140625,66.45071411132812,5.014312744140625,61.750030517578125L19.625,61.750030517578125L39,61.750030517578125L39,73.37503051757812L39,85.00003051757812L31.25,85.00003051757812L23.5,85.00003051757812L23.5,88.87503051757812L23.5,92.75003051757812L35.125,92.75003051757812L46.75,92.75003051757812L46.75,82.99356079101562L54.5,90.82241821289062L54.5,104.37503051757812L54.5,115.00491333007812C52.014984130859375,115.82278442382812,49.422698974609375,116.40359497070312,46.75,116.72036743164062L46.75,100.50003051757812L31.25,100.50003051757812L15.75,100.50003051757812L15.75,88.87503051757812L15.75,77.25003051757812L23.5,77.25003051757812L31.25,77.25003051757812L31.25,73.37503051757812L31.25,69.50003051757812L19.625,69.50003051757812L8,69.50003051757812L8,92.75003051757812L8,98.06948852539062M62.25,98.65127563476562L69.531494140625,106.00686645507812C67.32730102539062,108.09976196289062,64.8851318359375,109.94436645507812,62.25,111.49575805664062L62.25,98.65127563476562M39,116.88894653320312C30.727874755859375,116.27444458007812,23.15277099609375,113.13943481445312,17.040924072265625,108.25003051757812L27.375,108.25003051757812L39,108.25003051757812L39,116.88894653320312M9.278350830078125,54.000030517578125C12.9456787109375,48.794586181640625,17.82305908203125,44.501861572265625,23.5,41.532257080078125L23.5,42.375030517578125L23.5,54.000030517578125L9.278350830078125,54.000030517578125M46.75,71.37661743164062L46.75,54.000030517578125L39,54.000030517578125L31.25,54.000030517578125L31.25,38.463531494140625C33.74395751953125,37.768341064453125,36.335845947265625,37.308990478515625,39,37.111114501953125L39,46.250030517578125L46.75,46.250030517578125L54.5,46.250030517578125L54.5,63.547760009765625L46.75,71.37661743164062M46.75,37.279693603515625C48.847137451171875,37.528228759765625,50.894775390625,37.939361572265625,52.87994384765625,38.500030517578125L50.625,38.500030517578125L46.75,38.500030517578125L46.75,37.279693603515625M62.25,42.504302978515625C64.96041870117188,44.099884033203125,67.46670532226562,46.005889892578125,69.7198486328125,48.173126220703125L62.25,55.718902587890625L62.25,42.504302978515625" style="fill: none; stroke-width: 2; stroke: rgb(241, 216, 53); stroke-opacity: 1; stroke-linecap: round;"/></g></g></g></g><g id="shape-55ff07d5-c417-80d5-8006-b8aa18c8e6df" rx="0" ry="0" style="display: none; fill: rgb(0, 0, 0);"><g id="shape-55ff07d5-c417-80d5-8006-b8aa18c8e6ea" style="display: none;"><g class="fills" id="fills-55ff07d5-c417-80d5-8006-b8aa18c8e6ea"><rect width="24" height="24" x="74" transform="matrix(1.000000, 0.000000, 0.000000, 1.000000, 0.000000, 0.000000)" style="fill: none;" ry="0" fill="none" rx="0" y="22"/></g><g fill="none" id="strokes-2841c56d-774b-806f-8007-74b219eae380-55ff07d5-c417-80d5-8006-b8aa18c8e6ea" class="strokes"><g class="inner-stroke-shape" transform="matrix(1.000000, 0.000000, 0.000000, 1.000000, 0.000000, 0.000000)"><defs><clipPath id="inner-stroke-render-8-55ff07d5-c417-80d5-8006-b8aa18c8e6ea-0"><use href="#stroke-shape-render-8-55ff07d5-c417-80d5-8006-b8aa18c8e6ea-0"/></clipPath><rect rx="0" ry="0" x="74" y="22" width="24" height="24" id="stroke-shape-render-8-55ff07d5-c417-80d5-8006-b8aa18c8e6ea-0" style="fill: none; stroke-width: 3; stroke: rgb(241, 216, 53); stroke-opacity: 1;"/></defs><use href="#stroke-shape-render-8-55ff07d5-c417-80d5-8006-b8aa18c8e6ea-0" clip-path="url('#inner-stroke-render-8-55ff07d5-c417-80d5-8006-b8aa18c8e6ea-0')"/></g></g></g><g id="shape-55ff07d5-c417-80d5-8006-b8aa18c8e6eb"><g class="fills" id="fills-55ff07d5-c417-80d5-8006-b8aa18c8e6eb"><path d="M102,39.000030517578125L100,38.000030517578125M102,39.000030517578125L104,38.000030517578125M102,39.000030517578125L102,36.500030517578125M96,36.000030517578125L94,35.000030517578125L94,32.500030517578125M94,27.500030517578125L94,25.000030517578125M94,25.000030517578125L96,24.000030517578125M94,25.000030517578125L96,26.000030517578125M100,22.000030517578125L102,21.000030517578125L104,22.000030517578125M108,24.000030517578125L110,25.000030517578125M110,25.000030517578125L108,26.000030517578125M110,25.000030517578125L110,27.500030517578125M102,29.000030517578125L100,28.000030517578125M102,29.000030517578125L104,28.000030517578125M102,29.000030517578125L102,31.500030517578125M108,36.000030517578125L110,35.000030517578125L110,32.500030517578125" stroke="f1d835" fill="none" stroke-width="2" stroke-linecap="round" stroke-linejoin="round" style="fill: none;"/></g><g stroke="f1d835" fill="none" stroke-width="2" stroke-linecap="round" stroke-linejoin="round" id="strokes-2841c56d-774b-806f-8007-74b219ebe62d-55ff07d5-c417-80d5-8006-b8aa18c8e6eb" class="strokes"><g class="stroke-shape"><path d="M102,39.000030517578125L100,38.000030517578125M102,39.000030517578125L104,38.000030517578125M102,39.000030517578125L102,36.500030517578125M96,36.000030517578125L94,35.000030517578125L94,32.500030517578125M94,27.500030517578125L94,25.000030517578125M94,25.000030517578125L96,24.000030517578125M94,25.000030517578125L96,26.000030517578125M100,22.000030517578125L102,21.000030517578125L104,22.000030517578125M108,24.000030517578125L110,25.000030517578125M110,25.000030517578125L108,26.000030517578125M110,25.000030517578125L110,27.500030517578125M102,29.000030517578125L100,28.000030517578125M102,29.000030517578125L104,28.000030517578125M102,29.000030517578125L102,31.500030517578125M108,36.000030517578125L110,35.000030517578125L110,32.500030517578125" style="fill: none; stroke-width: 1.5; stroke: rgb(241, 216, 53); stroke-opacity: 1;"/></g></g></g></g><g id="shape-55ff07d5-c417-80d5-8006-b8aa18c8e6e0" rx="0" ry="0" style="display: none; fill: rgb(0, 0, 0);"><g id="shape-55ff07d5-c417-80d5-8006-b8aa18c8e6ec" style="display: none;"><g class="fills" id="fills-55ff07d5-c417-80d5-8006-b8aa18c8e6ec"><rect width="26" height="26" x="110" transform="matrix(1.000000, 0.000000, 0.000000, 1.000000, 0.000000, 0.000000)" style="fill: none;" ry="0" fill="none" rx="0" y="0"/></g><g fill="none" id="strokes-2841c56d-774b-806f-8007-74b219ef26c6-55ff07d5-c417-80d5-8006-b8aa18c8e6ec" class="strokes"><g class="inner-stroke-shape" transform="matrix(1.000000, 0.000000, 0.000000, 1.000000, 0.000000, 0.000000)"><defs><clipPath id="inner-stroke-render-11-55ff07d5-c417-80d5-8006-b8aa18c8e6ec-0"><use href="#stroke-shape-render-11-55ff07d5-c417-80d5-8006-b8aa18c8e6ec-0"/></clipPath><rect rx="0" ry="0" x="110" y="0" width="26" height="26" id="stroke-shape-render-11-55ff07d5-c417-80d5-8006-b8aa18c8e6ec-0" style="fill: none; stroke-width: 3; stroke: rgb(241, 216, 53); stroke-opacity: 1;"/></defs><use href="#stroke-shape-render-11-55ff07d5-c417-80d5-8006-b8aa18c8e6ec-0" clip-path="url('#inner-stroke-render-11-55ff07d5-c417-80d5-8006-b8aa18c8e6ec-0')"/></g></g></g><g id="shape-55ff07d5-c417-80d5-8006-b8aa18c8e6ed"><g class="fills" id="fills-55ff07d5-c417-80d5-8006-b8aa18c8e6ed"><ellipse cx="124.02374999999995" cy="4.643437500000118" rx="2.3643749999999955" ry="2.3643749999998818" transform="matrix(1.000000, 0.000000, 0.000000, 1.000000, 0.000000, 0.000000)" fill="none" style="fill: none;"/></g><g fill="none" id="strokes-2841c56d-774b-806f-8007-74b219f08a3f-55ff07d5-c417-80d5-8006-b8aa18c8e6ed" class="strokes"><g class="inner-stroke-shape" transform="matrix(1.000000, 0.000000, 0.000000, 1.000000, 0.000000, 0.000000)"><defs><clipPath id="inner-stroke-render-12-55ff07d5-c417-80d5-8006-b8aa18c8e6ed-0"><use href="#stroke-shape-render-12-55ff07d5-c417-80d5-8006-b8aa18c8e6ed-0"/></clipPath><ellipse cx="124.02374999999995" cy="4.643437500000118" rx="2.3643749999999955" ry="2.3643749999998818" id="stroke-shape-render-12-55ff07d5-c417-80d5-8006-b8aa18c8e6ed-0" style="fill: none; stroke-width: 3; stroke: rgb(241, 216, 53); stroke-opacity: 1;"/></defs><use href="#stroke-shape-render-12-55ff07d5-c417-80d5-8006-b8aa18c8e6ed-0" clip-path="url('#inner-stroke-render-12-55ff07d5-c417-80d5-8006-b8aa18c8e6ed-0')"/></g></g></g><g id="shape-55ff07d5-c417-80d5-8006-b8aa18c8e6ee"><g class="fills" id="fills-55ff07d5-c417-80d5-8006-b8aa18c8e6ee"><ellipse cx="131.78718749999996" cy="12.837500000000091" rx="2.3643749999999955" ry="2.364375000000109" transform="matrix(1.000000, 0.000000, 0.000000, 1.000000, 0.000000, 0.000000)" fill="none" style="fill: none;"/></g><g fill="none" id="strokes-2841c56d-774b-806f-8007-74b219f119d1-55ff07d5-c417-80d5-8006-b8aa18c8e6ee" class="strokes"><g class="inner-stroke-shape" transform="matrix(1.000000, 0.000000, 0.000000, 1.000000, 0.000000, 0.000000)"><defs><clipPath id="inner-stroke-render-13-55ff07d5-c417-80d5-8006-b8aa18c8e6ee-0"><use href="#stroke-shape-render-13-55ff07d5-c417-80d5-8006-b8aa18c8e6ee-0"/></clipPath><ellipse cx="131.78718749999996" cy="12.837500000000091" rx="2.3643749999999955" ry="2.364375000000109" id="stroke-shape-render-13-55ff07d5-c417-80d5-8006-b8aa18c8e6ee-0" style="fill: none; stroke-width: 3; stroke: rgb(241, 216, 53); stroke-opacity: 1;"/></defs><use href="#stroke-shape-render-13-55ff07d5-c417-80d5-8006-b8aa18c8e6ee-0" clip-path="url('#inner-stroke-render-13-55ff07d5-c417-80d5-8006-b8aa18c8e6ee-0')"/></g></g></g><g id="shape-55ff07d5-c417-80d5-8006-b8aa18c8e6ef"><g class="fills" id="fills-55ff07d5-c417-80d5-8006-b8aa18c8e6ef"><ellipse cx="124.02374999999995" cy="20.54406250000011" rx="2.3643749999999955" ry="2.364375000000109" transform="matrix(1.000000, 0.000000, 0.000000, 1.000000, 0.000000, 0.000000)" fill="none" style="fill: none;"/></g><g fill="none" id="strokes-2841c56d-774b-806f-8007-74b219f1b5bf-55ff07d5-c417-80d5-8006-b8aa18c8e6ef" class="strokes"><g class="inner-stroke-shape" transform="matrix(1.000000, 0.000000, 0.000000, 1.000000, 0.000000, 0.000000)"><defs><clipPath id="inner-stroke-render-14-55ff07d5-c417-80d5-8006-b8aa18c8e6ef-0"><use href="#stroke-shape-render-14-55ff07d5-c417-80d5-8006-b8aa18c8e6ef-0"/></clipPath><ellipse cx="124.02374999999995" cy="20.54406250000011" rx="2.3643749999999955" ry="2.364375000000109" id="stroke-shape-render-14-55ff07d5-c417-80d5-8006-b8aa18c8e6ef-0" style="fill: none; stroke-width: 3; stroke: rgb(241, 216, 53); stroke-opacity: 1;"/></defs><use href="#stroke-shape-render-14-55ff07d5-c417-80d5-8006-b8aa18c8e6ef-0" clip-path="url('#inner-stroke-render-14-55ff07d5-c417-80d5-8006-b8aa18c8e6ef-0')"/></g></g></g><g id="shape-55ff07d5-c417-80d5-8006-b8aa18c8e6f0"><g class="fills" id="fills-55ff07d5-c417-80d5-8006-b8aa18c8e6f0"><ellipse cx="116.15874999999994" cy="17.074687500000095" rx="2.3643749999999955" ry="2.3643749999999955" transform="matrix(1.000000, 0.000000, 0.000000, 1.000000, 0.000000, 0.000000)" fill="none" style="fill: none;"/></g><g fill="none" id="strokes-2841c56d-774b-806f-8007-74b219f360ce-55ff07d5-c417-80d5-8006-b8aa18c8e6f0" class="strokes"><g class="inner-stroke-shape" transform="matrix(1.000000, 0.000000, 0.000000, 1.000000, 0.000000, 0.000000)"><defs><clipPath id="inner-stroke-render-15-55ff07d5-c417-80d5-8006-b8aa18c8e6f0-0"><use href="#stroke-shape-render-15-55ff07d5-c417-80d5-8006-b8aa18c8e6f0-0"/></clipPath><ellipse cx="116.15874999999994" cy="17.074687500000095" rx="2.3643749999999955" ry="2.3643749999999955" id="stroke-shape-render-15-55ff07d5-c417-80d5-8006-b8aa18c8e6f0-0" style="fill: none; stroke-width: 3; stroke: rgb(241, 216, 53); stroke-opacity: 1;"/></defs><use href="#stroke-shape-render-15-55ff07d5-c417-80d5-8006-b8aa18c8e6f0-0" clip-path="url('#inner-stroke-render-15-55ff07d5-c417-80d5-8006-b8aa18c8e6f0-0')"/></g></g></g><g id="shape-55ff07d5-c417-80d5-8006-b8aa18c8e6f1"><g class="fills" id="fills-55ff07d5-c417-80d5-8006-b8aa18c8e6f1"><ellipse cx="116.15874999999994" cy="7.828437500000177" rx="2.3643749999999955" ry="2.3643749999999955" transform="matrix(1.000000, 0.000000, 0.000000, 1.000000, 0.000000, 0.000000)" fill="none" style="fill: none;"/></g><g fill="none" id="strokes-2841c56d-774b-806f-8007-74b219f3b00d-55ff07d5-c417-80d5-8006-b8aa18c8e6f1" class="strokes"><g class="inner-stroke-shape" transform="matrix(1.000000, 0.000000, 0.000000, 1.000000, 0.000000, 0.000000)"><defs><clipPath id="inner-stroke-render-16-55ff07d5-c417-80d5-8006-b8aa18c8e6f1-0"><use href="#stroke-shape-render-16-55ff07d5-c417-80d5-8006-b8aa18c8e6f1-0"/></clipPath><ellipse cx="116.15874999999994" cy="7.828437500000177" rx="2.3643749999999955" ry="2.3643749999999955" id="stroke-shape-render-16-55ff07d5-c417-80d5-8006-b8aa18c8e6f1-0" style="fill: none; stroke-width: 3; stroke: rgb(241, 216, 53); stroke-opacity: 1;"/></defs><use href="#stroke-shape-render-16-55ff07d5-c417-80d5-8006-b8aa18c8e6f1-0" clip-path="url('#inner-stroke-render-16-55ff07d5-c417-80d5-8006-b8aa18c8e6f1-0')"/></g></g></g><g id="shape-55ff07d5-c417-80d5-8006-b8aa18c8e6f2"><g class="fills" id="fills-55ff07d5-c417-80d5-8006-b8aa18c8e6f2"><ellipse cx="124.01968749999992" cy="11.890937500000064" rx="1.9093749999999545" ry="1.9093749999999545" transform="matrix(1.000000, 0.000000, 0.000000, 1.000000, 0.000000, 0.000000)" fill="none" style="fill: none;"/></g><g fill="none" id="strokes-2841c56d-774b-806f-8007-74b219f42976-55ff07d5-c417-80d5-8006-b8aa18c8e6f2" class="strokes"><g class="inner-stroke-shape" transform="matrix(1.000000, 0.000000, 0.000000, 1.000000, 0.000000, 0.000000)"><defs><clipPath id="inner-stroke-render-17-55ff07d5-c417-80d5-8006-b8aa18c8e6f2-0"><use href="#stroke-shape-render-17-55ff07d5-c417-80d5-8006-b8aa18c8e6f2-0"/></clipPath><ellipse cx="124.01968749999992" cy="11.890937500000064" rx="1.9093749999999545" ry="1.9093749999999545" id="stroke-shape-render-17-55ff07d5-c417-80d5-8006-b8aa18c8e6f2-0" style="fill: none; stroke-width: 3; stroke: rgb(241, 216, 53); stroke-opacity: 1;"/></defs><use href="#stroke-shape-render-17-55ff07d5-c417-80d5-8006-b8aa18c8e6f2-0" clip-path="url('#inner-stroke-render-17-55ff07d5-c417-80d5-8006-b8aa18c8e6f2-0')"/></g></g></g><g id="shape-55ff07d5-c417-80d5-8006-b8aa18c8e6f3"><g class="fills" id="fills-55ff07d5-c417-80d5-8006-b8aa18c8e6f3"><path d="M118.194091796875,6.621856689453125L121.74072265625,5.252838134765625" fill="none" style="fill: none;"/></g><g fill="none" id="strokes-2841c56d-774b-806f-8007-74b219f45ad8-55ff07d5-c417-80d5-8006-b8aa18c8e6f3" class="strokes"><g class="stroke-shape"><path d="M118.194091796875,6.621856689453125L121.74072265625,5.252838134765625" style="fill: none; stroke-width: 1.5; stroke: rgb(241, 216, 53); stroke-opacity: 1;"/></g></g></g><g id="shape-55ff07d5-c417-80d5-8006-b8aa18c8e6f4"><g class="fills" id="fills-55ff07d5-c417-80d5-8006-b8aa18c8e6f4"><path d="M125.68115234375,6.333404541015625L130.101318359375,11.179962158203125" fill="none" style="fill: none;"/></g><g fill="none" id="strokes-2841c56d-774b-806f-8007-74b219f4e782-55ff07d5-c417-80d5-8006-b8aa18c8e6f4" class="strokes"><g class="stroke-shape"><path d="M125.68115234375,6.333404541015625L130.101318359375,11.179962158203125" style="fill: none; stroke-width: 1.5; stroke: rgb(241, 216, 53); stroke-opacity: 1;"/></g></g></g><g id="shape-55ff07d5-c417-80d5-8006-b8aa18c8e6f5"><g class="fills" id="fills-55ff07d5-c417-80d5-8006-b8aa18c8e6f5"><path d="M130.3409423828125,14.706207275390625L125.709716796875,18.886627197265625" fill="none" style="fill: none;"/></g><g fill="none" id="strokes-2841c56d-774b-806f-8007-74b219f51111-55ff07d5-c417-80d5-8006-b8aa18c8e6f5" class="strokes"><g class="stroke-shape"><path d="M130.3409423828125,14.706207275390625L125.709716796875,18.886627197265625" style="fill: none; stroke-width: 1.5; stroke: rgb(241, 216, 53); stroke-opacity: 1;"/></g></g></g><g id="shape-55ff07d5-c417-80d5-8006-b8aa18c8e6f6"><g class="fills" id="fills-55ff07d5-c417-80d5-8006-b8aa18c8e6f6"><path d="M117.458740234375,9.802764892578125L122.55712890625,18.691558837890625" fill="none" style="fill: none;"/></g><g fill="none" id="strokes-2841c56d-774b-806f-8007-74b219f5d3a3-55ff07d5-c417-80d5-8006-b8aa18c8e6f6" class="strokes"><g class="stroke-shape"><path d="M117.458740234375,9.802764892578125L122.55712890625,18.691558837890625" style="fill: none; stroke-width: 1.5; stroke: rgb(241, 216, 53); stroke-opacity: 1;"/></g></g></g><g id="shape-55ff07d5-c417-80d5-8006-b8aa18c8e6f7"><g class="fills" id="fills-55ff07d5-c417-80d5-8006-b8aa18c8e6f7"><path d="M118.2509765625,18.175689697265625L121.659423828125,19.755889892578125" fill="none" style="fill: none;"/></g><g fill="none" id="strokes-2841c56d-774b-806f-8007-74b219f648fa-55ff07d5-c417-80d5-8006-b8aa18c8e6f7" class="strokes"><g class="stroke-shape"><path d="M118.2509765625,18.175689697265625L121.659423828125,19.755889892578125" style="fill: none; stroke-width: 1.5; stroke: rgb(241, 216, 53); stroke-opacity: 1;"/></g></g></g><g id="shape-55ff07d5-c417-80d5-8006-b8aa18c8e6f8"><g class="fills" id="fills-55ff07d5-c417-80d5-8006-b8aa18c8e6f8"><path d="M117.04443359375,14.880889892578125L122.744140625,6.630035400390625" fill="none" style="fill: none;"/></g><g fill="none" id="strokes-2841c56d-774b-806f-8007-74b219f6ba79-55ff07d5-c417-80d5-8006-b8aa18c8e6f8" class="strokes"><g class="stroke-shape"><path d="M117.04443359375,14.880889892578125L122.744140625,6.630035400390625" style="fill: none; stroke-width: 1.5; stroke: rgb(241, 216, 53); stroke-opacity: 1;"/></g></g></g><g id="shape-55ff07d5-c417-80d5-8006-b8aa18c8e6f9"><g class="fills" id="fills-55ff07d5-c417-80d5-8006-b8aa18c8e6f9"><path d="M118.336181640625,8.754669189453125L122.32568359375,11.009429931640625" fill="none" style="fill: none;"/></g><g fill="none" id="strokes-2841c56d-774b-806f-8007-74b219f7468a-55ff07d5-c417-80d5-8006-b8aa18c8e6f9" class="strokes"><g class="stroke-shape"><path d="M118.336181640625,8.754669189453125L122.32568359375,11.009429931640625" style="fill: none; stroke-width: 1.5; stroke: rgb(241, 216, 53); stroke-opacity: 1;"/></g></g></g><g id="shape-55ff07d5-c417-80d5-8006-b8aa18c8e6fa"><g class="fills" id="fills-55ff07d5-c417-80d5-8006-b8aa18c8e6fa"><path d="M125.93310546875,12.106231689453125L129.4228515625,12.370269775390625" fill="none" style="fill: none;"/></g><g fill="none" id="strokes-2841c56d-774b-806f-8007-74b219f7fd39-55ff07d5-c417-80d5-8006-b8aa18c8e6fa" class="strokes"><g class="stroke-shape"><path d="M125.93310546875,12.106231689453125L129.4228515625,12.370269775390625" style="fill: none; stroke-width: 1.5; stroke: rgb(241, 216, 53); stroke-opacity: 1;"/></g></g></g><g id="shape-55ff07d5-c417-80d5-8006-b8aa18c8e6fb"><g class="fills" id="fills-55ff07d5-c417-80d5-8006-b8aa18c8e6fb"><path d="M124.019775390625,13.804351806640625L124.023681640625,18.175689697265625" fill="none" style="fill: none;"/></g><g fill="none" id="strokes-2841c56d-774b-806f-8007-74b219f82e4a-55ff07d5-c417-80d5-8006-b8aa18c8e6fb" class="strokes"><g class="stroke-shape"><path d="M124.019775390625,13.804351806640625L124.023681640625,18.175689697265625" style="fill: none; stroke-width: 1.5; stroke: rgb(241, 216, 53); stroke-opacity: 1;"/></g></g></g></g><g id="shape-55ff07d5-c417-80d5-8006-b8aa18c8e6e1"><g class="fills" id="fills-55ff07d5-c417-80d5-8006-b8aa18c8e6e1"><ellipse cx="72" cy="77" rx="8" ry="8" transform="matrix(1.000000, 0.000000, 0.000000, 1.000000, 0.000000, 0.000000)" style="fill: rgb(241, 216, 53); fill-opacity: 1;"/></g></g><g id="shape-55ff07d5-c417-80d5-8006-b8aa18c8e6e2"><g class="fills" id="fills-55ff07d5-c417-80d5-8006-b8aa18c8e6e2"><ellipse cx="494" cy="77" rx="8" ry="8" transform="matrix(1.000000, 0.000000, 0.000000, 1.000000, 0.000000, 0.000000)" style="fill: rgb(241, 216, 53); fill-opacity: 1;"/></g></g><g id="shape-55ff07d5-c417-80d5-8006-b8aa18c8e6e3" height="1em" width="1em" rx="0" ry="0" style="fill: rgb(0, 0, 0);"><g id="shape-55ff07d5-c417-80d5-8006-b8aa18c8e6fc" style="display: none;"><g class="fills" id="fills-55ff07d5-c417-80d5-8006-b8aa18c8e6fc"><rect width="24" height="24" x="168" transform="matrix(1.000000, 0.000000, 0.000000, 1.000000, 0.000000, 0.000000)" fill-rule="evenodd" style="flex: 0 0 auto; line-height: 1; fill: rgb(241, 216, 53); fill-opacity: 1;" ry="0" fill="none" rx="0" y="9"/></g></g><g id="shape-55ff07d5-c417-80d5-8006-b8aa18c8e6fd"><g class="fills" id="fills-55ff07d5-c417-80d5-8006-b8aa18c8e6fd"><path d="M188.615966796875,19.834991455078125C186.954833984375,19.127838134765625,185.4442138671875,18.109161376953125,184.166015625,16.834014892578125C182.3858642578125,15.050323486328125,181.115966796875,12.822540283203125,180.488037109375,10.381988525390625C180.431396484375,10.159088134765625,180.2305908203125,10.002960205078125,180.00048828125,10.002960205078125C179.7705078125,10.002960205078125,179.5697021484375,10.159088134765625,179.512939453125,10.381988525390625C178.8837890625,12.822174072265625,177.613525390625,15.049835205078125,175.833984375,16.834014892578125C174.5556640625,18.109039306640625,173.045166015625,19.127593994140625,171.384033203125,19.834991455078125C170.7340087890625,20.115020751953125,170.06591796875,20.339996337890625,169.382080078125,20.512969970703125C169.1575927734375,20.568145751953125,168.999755859375,20.769439697265625,168.999755859375,21.000518798828125C168.999755859375,21.231597900390625,169.1575927734375,21.432891845703125,169.382080078125,21.488067626953125C170.06591796875,21.660064697265625,170.73193359375,21.885040283203125,171.384033203125,22.165069580078125C173.045166015625,22.872222900390625,174.5557861328125,23.890899658203125,175.833984375,25.166046142578125C177.614501953125,26.949859619140625,178.885009765625,29.178009033203125,179.512939453125,31.619049072265625C179.568115234375,31.843414306640625,179.7694091796875,32.001251220703125,180.00048828125,32.001251220703125C180.231689453125,32.001251220703125,180.432861328125,31.843414306640625,180.488037109375,31.619049072265625C180.659912109375,30.933990478515625,180.885009765625,30.267974853515625,181.1650390625,29.615997314453125C181.8720703125,27.954742431640625,182.890869140625,26.444244384765625,184.166015625,25.166046142578125C185.949951171875,23.385772705078125,188.17822265625,22.115875244140625,190.6190185546875,21.488067626953125C190.842041015625,21.431304931640625,190.998046875,21.230621337890625,190.998046875,21.000518798828125C190.998046875,20.770416259765625,190.842041015625,20.569732666015625,190.6190185546875,20.512969970703125C189.934326171875,20.340728759765625,189.2645263671875,20.114044189453125,188.615966796875,19.834991455078125Z" fill-rule="evenodd" style="flex: 0 0 auto; line-height: 1; fill: rgb(241, 216, 53); fill-opacity: 1;"/></g></g></g><g id="shape-55ff07d5-c417-80d5-8006-b8aa18c8e6e4" height="1em" width="1em" rx="0" ry="0" style="fill: rgb(0, 0, 0);"><g id="shape-55ff07d5-c417-80d5-8006-b8aa18c8e6fe" style="display: none;"><g class="fills" id="fills-55ff07d5-c417-80d5-8006-b8aa18c8e6fe"><rect width="12" height="12" x="186" transform="matrix(1.000000, 0.000000, 0.000000, 1.000000, 0.000000, 0.000000)" fill-rule="evenodd" style="flex: 0 0 auto; line-height: 1; fill: rgb(241, 216, 53); fill-opacity: 1;" ry="0" fill="none" rx="0" y="27"/></g></g><g id="shape-55ff07d5-c417-80d5-8006-b8aa18c8e6ff"><g class="fills" id="fills-55ff07d5-c417-80d5-8006-b8aa18c8e6ff"><path d="M196.3079833984375,32.417510986328125C195.4774169921875,32.063873291015625,194.72216796875,31.554595947265625,194.0830078125,30.917022705078125C193.19287109375,30.025177001953125,192.5579833984375,28.911285400390625,192.2440185546875,27.690948486328125C192.2156982421875,27.579498291015625,192.115234375,27.501495361328125,192.000244140625,27.501495361328125C191.88525390625,27.501495361328125,191.784912109375,27.579498291015625,191.7564697265625,27.690948486328125C191.44189453125,28.911041259765625,190.8067626953125,30.024932861328125,189.9169921875,30.917022705078125C189.27783203125,31.554473876953125,188.5225830078125,32.063873291015625,187.6920166015625,32.417510986328125C187.366943359375,32.557525634765625,187.032958984375,32.669952392578125,186.6910400390625,32.756500244140625C186.578857421875,32.784088134765625,186.4998779296875,32.884674072265625,186.4998779296875,33.000274658203125C186.4998779296875,33.115753173828125,186.578857421875,33.216461181640625,186.6910400390625,33.244049072265625C187.032958984375,33.329986572265625,187.365966796875,33.442535400390625,187.6920166015625,33.582550048828125C188.5225830078125,33.936065673828125,189.27783203125,34.445465087890625,189.9169921875,35.083038330078125C190.8072509765625,35.975006103515625,191.4425048828125,37.089019775390625,191.7564697265625,38.309478759765625C191.7840576171875,38.421783447265625,191.884765625,38.500640869140625,192.000244140625,38.500640869140625C192.1158447265625,38.500640869140625,192.2164306640625,38.421783447265625,192.2440185546875,38.309478759765625C192.3299560546875,37.967071533203125,192.4425048828125,37.634063720703125,192.58251953125,37.308013916015625C192.93603515625,36.477325439453125,193.4454345703125,35.722076416015625,194.0830078125,35.083038330078125C194.9749755859375,34.192901611328125,196.089111328125,33.557891845703125,197.3095703125,33.244049072265625C197.4210205078125,33.215728759765625,197.4990234375,33.115264892578125,197.4990234375,33.000274658203125C197.4990234375,32.885162353515625,197.4210205078125,32.784820556640625,197.3095703125,32.756500244140625C196.9671630859375,32.670440673828125,196.63232421875,32.557037353515625,196.3079833984375,32.417510986328125Z" fill-rule="evenodd" style="flex: 0 0 auto; line-height: 1; fill: rgb(241, 216, 53); fill-opacity: 1;"/></g></g></g></g></g></g></g></g></g></g></svg>